# xmcd
#
# Track frame offsets: 
#        150
#        3634
#        27250
#        48423
#        76148
#        95511
#        110977
#        132921
#        149462
#        171837
#        192919
#        205931
#        223849
#        241223
#        259692
#
# Disc length: 3687 seconds
#
# Revision: 0
# Processed by: cddbd v1.5.2PL0 Copyright (c) Steve Scherf et al.
# Submitted via: ExactAudioCopy v1.2
#
DISCID=da0e650f
DTITLE=Muddy Gurdy - Muddy Gurdy
DYEAR=2018
DGENRE=Blues
TTITLE0=Tia inthe Rocking Chair (intro)
TTITLE1=Going Down South
TTITLE2=That Girl Is Bad (feat. Cedric Burnside)
TTITLE3=See My Jumper Holding on the Line
TTITLE4=Rollin' and Tumblin'
TTITLE5=Station Blues
TTITLE6=Shawty Blues
TTITLE7=Glory Glory Hallelujah
TTITLE8=Leave Her Alone
TTITLE9=Gonna Love You
TTITLE10=Dream
TTITLE11=She Wolf
TTITLE12=Shake 'Em on Down
TTITLE13=Help the Poor
TTITLE14=Highway 61
EXTD=
EXTT0=
EXTT1=
EXTT2=
EXTT3=
EXTT4=
EXTT5=
EXTT6=
EXTT7=
EXTT8=
EXTT9=
EXTT10=
EXTT11=
EXTT12=
EXTT13=
EXTT14=
PLAYORDER=
